<svg width="141" height="32" viewBox="0 0 141 32" fill="none" xmlns="http://www.w3.org/2000/svg">
<rect width="11" height="32" rx="5.5" fill="#3B82F6"/>
<rect x="12" y="23.5962" width="10.7426" height="10.4706" transform="rotate(-45 12 23.5962)" fill="#3B82F6"/>
<rect x="12" y="7.59619" width="10.7426" height="10.4706" transform="rotate(-45 12 7.59619)" fill="#3B82F6"/>
<path d="M32.5966 11.7475V10.0909H41.3004V11.7475H37.9286V21H35.9684V11.7475H32.5966ZM43.8109 21H41.7015L45.5421 10.0909H47.9817L51.8276 21H49.7182L46.8045 12.3281H46.7193L43.8109 21ZM43.8801 16.7227H49.633V18.31H43.8801V16.7227ZM59.7673 13.0898C59.7176 12.6246 59.5081 12.2624 59.1388 12.0032C58.773 11.744 58.2971 11.6143 57.7112 11.6143C57.2993 11.6143 56.9459 11.6765 56.6512 11.8008C56.3564 11.9251 56.1309 12.0937 55.9747 12.3068C55.8184 12.5199 55.7385 12.7631 55.735 13.0366C55.735 13.2638 55.7865 13.4609 55.8895 13.6278C55.996 13.7947 56.1398 13.9368 56.3209 14.054C56.502 14.1676 56.7027 14.2635 56.9229 14.3416C57.143 14.4197 57.365 14.4854 57.5887 14.5387L58.6114 14.7944C59.0233 14.8903 59.4193 15.0199 59.7993 15.1832C60.1828 15.3466 60.5255 15.5526 60.8273 15.8011C61.1327 16.0497 61.3742 16.3498 61.5518 16.7013C61.7293 17.0529 61.8181 17.4648 61.8181 17.9371C61.8181 18.5763 61.6547 19.1392 61.328 19.6257C61.0013 20.1087 60.529 20.4869 59.9111 20.7603C59.2968 21.0302 58.5528 21.1651 57.6792 21.1651C56.8305 21.1651 56.0937 21.0337 55.4687 20.771C54.8472 20.5082 54.3607 20.1246 54.0091 19.6204C53.6611 19.1161 53.4729 18.5018 53.4445 17.7773H55.3888C55.4172 18.1573 55.5344 18.4734 55.7403 18.7255C55.9463 18.9776 56.2144 19.1658 56.5447 19.2901C56.8785 19.4144 57.2513 19.4766 57.6633 19.4766C58.093 19.4766 58.4694 19.4126 58.7925 19.2848C59.1192 19.1534 59.3749 18.9723 59.5596 18.7415C59.7442 18.5071 59.8383 18.2337 59.8419 17.9212C59.8383 17.6371 59.7549 17.4027 59.5915 17.218C59.4282 17.0298 59.1991 16.8736 58.9044 16.7493C58.6132 16.6214 58.2723 16.5078 57.8817 16.4084L56.6405 16.0888C55.7421 15.858 55.0319 15.5082 54.5099 15.0394C53.9914 14.5671 53.7322 13.9403 53.7322 13.1591C53.7322 12.5163 53.9062 11.9535 54.2542 11.4705C54.6057 10.9876 55.0834 10.6129 55.6871 10.3466C56.2907 10.0767 56.9743 9.94176 57.7378 9.94176C58.512 9.94176 59.1903 10.0767 59.7726 10.3466C60.3586 10.6129 60.8184 10.984 61.1523 11.4599C61.4861 11.9322 61.6583 12.4755 61.6689 13.0898H59.7673ZM64.3299 21V10.0909H66.3061V15.1033H66.4393L70.6953 10.0909H73.1083L68.8896 14.9862L73.1456 21H70.7699L67.5153 16.3232L66.3061 17.7507V21H64.3299ZM75.2313 10.0909H77.6496L80.8882 17.9957H81.0161L84.2547 10.0909H86.673V21H84.7767V13.5053H84.6755L81.6606 20.968H80.2437L77.2288 13.4893H77.1276V21H75.2313V10.0909ZM90.9759 21H88.8666L92.7071 10.0909H95.1468L98.9926 21H96.8833L93.9695 12.3281H93.8843L90.9759 21ZM91.0452 16.7227H96.798V18.31H91.0452V16.7227ZM106.932 13.0898C106.883 12.6246 106.673 12.2624 106.304 12.0032C105.938 11.744 105.462 11.6143 104.876 11.6143C104.464 11.6143 104.111 11.6765 103.816 11.8008C103.521 11.9251 103.296 12.0937 103.14 12.3068C102.983 12.5199 102.904 12.7631 102.9 13.0366C102.9 13.2638 102.952 13.4609 103.055 13.6278C103.161 13.7947 103.305 13.9368 103.486 14.054C103.667 14.1676 103.868 14.2635 104.088 14.3416C104.308 14.4197 104.53 14.4854 104.754 14.5387L105.776 14.7944C106.188 14.8903 106.584 15.0199 106.964 15.1832C107.348 15.3466 107.691 15.5526 107.992 15.8011C108.298 16.0497 108.539 16.3498 108.717 16.7013C108.894 17.0529 108.983 17.4648 108.983 17.9371C108.983 18.5763 108.82 19.1392 108.493 19.6257C108.166 20.1087 107.694 20.4869 107.076 20.7603C106.462 21.0302 105.718 21.1651 104.844 21.1651C103.996 21.1651 103.259 21.0337 102.634 20.771C102.012 20.5082 101.526 20.1246 101.174 19.6204C100.826 19.1161 100.638 18.5018 100.61 17.7773H102.554C102.582 18.1573 102.699 18.4734 102.905 18.7255C103.111 18.9776 103.379 19.1658 103.71 19.2901C104.044 19.4144 104.416 19.4766 104.828 19.4766C105.258 19.4766 105.634 19.4126 105.958 19.2848C106.284 19.1534 106.54 18.9723 106.725 18.7415C106.909 18.5071 107.003 18.2337 107.007 17.9212C107.003 17.6371 106.92 17.4027 106.757 17.218C106.593 17.0298 106.364 16.8736 106.069 16.7493C105.778 16.6214 105.437 16.5078 105.047 16.4084L103.806 16.0888C102.907 15.858 102.197 15.5082 101.675 15.0394C101.156 14.5671 100.897 13.9403 100.897 13.1591C100.897 12.5163 101.071 11.9535 101.419 11.4705C101.771 10.9876 102.248 10.6129 102.852 10.3466C103.456 10.0767 104.139 9.94176 104.903 9.94176C105.677 9.94176 106.355 10.0767 106.938 10.3466C107.524 10.6129 107.983 10.984 108.317 11.4599C108.651 11.9322 108.823 12.4755 108.834 13.0898H106.932ZM111.016 11.7475V10.0909H119.719V11.7475H116.348V21H114.387V11.7475H111.016ZM122.147 21V10.0909H129.242V11.7475H124.123V14.7092H128.875V16.3658H124.123V19.3434H129.285V21H122.147ZM132.009 21V10.0909H136.1C136.938 10.0909 137.641 10.2365 138.209 10.5277C138.781 10.8189 139.212 11.2273 139.503 11.7528C139.798 12.2749 139.945 12.8839 139.945 13.5799C139.945 14.2795 139.796 14.8867 139.498 15.4016C139.203 15.913 138.768 16.3089 138.193 16.5895C137.618 16.8665 136.911 17.005 136.073 17.005H133.159V15.3643H135.807C136.297 15.3643 136.698 15.2969 137.01 15.1619C137.323 15.0234 137.554 14.8228 137.703 14.56C137.856 14.2937 137.932 13.967 137.932 13.5799C137.932 13.1928 137.856 12.8626 137.703 12.5891C137.55 12.3121 137.318 12.1026 137.005 11.9606C136.693 11.815 136.29 11.7422 135.796 11.7422H133.985V21H132.009ZM137.644 16.0568L140.345 21H138.14L135.487 16.0568H137.644Z" fill="#2563EB"/>
</svg>
